<svg xmlns="http://www.w3.org/2000/svg" xmlns:xlink="http://www.w3.org/1999/xlink" width="294.838" height="278.272" viewBox="0 0 294.838 278.272">
  <defs>
    <linearGradient id="linear-gradient" x1="0.5" x2="0.5" y2="1" gradientUnits="objectBoundingBox">
      <stop offset="0" stop-color="#5ad1ff"/>
      <stop offset="1" stop-color="#0690c4"/>
    </linearGradient>
    <filter id="Intersection_1" x="0" y="0" width="294.838" height="278.272" filterUnits="userSpaceOnUse">
      <feOffset dy="3" input="SourceAlpha"/>
      <feGaussianBlur stdDeviation="3" result="blur"/>
      <feFlood flood-opacity="0.161"/>
      <feComposite operator="in" in2="blur"/>
      <feComposite in="SourceGraphic"/>
    </filter>
  </defs>
  <g transform="matrix(1, 0, 0, 1, 0, 0)" filter="url(#Intersection_1)">
    <path id="Intersection_1-2" data-name="Intersection 1" d="M.65,260.27V5A5,5,0,0,1,3.975.288L272.863.005a5,5,0,0,1,4.624,3.768c-.057.866-.136,1.862-.245,2.973a116.884,116.884,0,0,1-2.969,16.948,107.762,107.762,0,0,1-8.206,22.213,88.191,88.191,0,0,1-16.111,22.544C232.487,86.014,207.9,94.919,176.872,94.919c-52.36,0-77.32,26.139-89.039,48.066A115.389,115.389,0,0,0,76.507,176.03a97.355,97.355,0,0,0-1.693,15.02,70.386,70.386,0,0,1-1.281,10.817,87.812,87.812,0,0,1-2.843,11.087,78.723,78.723,0,0,1-5.415,12.71,62.771,62.771,0,0,1-21.863,23.8,66.591,66.591,0,0,1-18.1,7.843,91.773,91.773,0,0,1-23.989,2.975C1.1,260.277.873,260.275.65,260.27Z" transform="translate(8.35 5.99)" fill="url(#linear-gradient)"/>
  </g>
</svg>
