<svg xmlns="http://www.w3.org/2000/svg" width="70" height="51" viewBox="0 0 70 51">
  <g id="Group_21" data-name="Group 21" transform="translate(-1156 -1441)">
    <circle id="Ellipse_7" data-name="Ellipse 7" cx="25.5" cy="25.5" r="25.5" transform="translate(1166 1441)" fill="#ffe354"/>
    <g id="Union_1" data-name="Union 1" transform="translate(1156 1443)" fill="#e1e1e1">
      <path d="M 45.99990081787109 25.99990081787109 L 6.000300884246826 25.99990081787109 C 3.794531106948853 25.99990081787109 2.000001192092896 24.20536994934082 2.000001192092896 21.99959945678711 C 2.000001192092896 21.04598999023438 2.340911149978638 20.12281036376953 2.959931135177612 19.4001407623291 C 3.573240995407104 18.68412971496582 4.419111251831055 18.20600128173828 5.341711044311523 18.05383110046387 L 7.110880851745605 17.76202011108398 L 7.013261318206787 15.9716100692749 C 7.004731178283691 15.81505012512207 7.000401020050049 15.65631008148193 7.000401020050049 15.49980068206787 C 7.000401020050049 13.36676025390625 7.793671131134033 11.32704067230225 9.234070777893066 9.756350517272949 C 10.66610145568848 8.19481086730957 12.61070156097412 7.228580474853516 14.709641456604 7.035670280456543 L 15.71113109588623 6.943620204925537 L 16.23447036743164 6.084800243377686 C 16.98064041137695 4.860320568084717 18.03202056884766 3.835890293121338 19.27493095397949 3.122280359268188 C 20.55370140075684 2.388080358505249 22.01467132568359 2.000000476837158 23.49990081787109 2.000000476837158 C 26.68552017211914 2.000000476837158 29.57802200317383 3.757770299911499 31.04863166809082 6.587350368499756 L 32.06077194213867 8.534810066223145 L 33.90605926513672 7.346560478210449 C 35.27450180053711 6.465370178222656 36.86313247680664 5.999600410461426 38.50020217895508 5.999600410461426 C 43.18679046630859 5.999600410461426 46.99959945678711 9.812820434570313 46.99959945678711 14.49990081787109 C 46.99959945678711 15.09514999389648 46.93796920776367 15.68911075592041 46.81643295288086 16.26530075073242 L 46.50340270996094 17.74921035766602 L 47.8477897644043 18.4510498046875 C 49.17544174194336 19.14416122436523 50.00020217895508 20.50387954711914 50.00020217895508 21.99959945678711 C 50.00020217895508 24.20536994934082 48.20566940307617 25.99990081787109 45.99990081787109 25.99990081787109 Z" stroke="none"/>
      <path d="M 45.99990081787109 23.99990653991699 C 47.10286712646484 23.99990653991699 48.00020217895508 23.10257339477539 48.00020217895508 21.99960517883301 C 48.00020217895508 21.10538291931152 47.44334411621094 20.49606132507324 46.92221069335938 20.22399520874023 L 44.23342514038086 18.8203067779541 L 44.85948944091797 15.85248374938965 C 44.95245742797852 15.41177272796631 44.99959945678711 14.95669460296631 44.99959945678711 14.49990558624268 C 44.99959945678711 10.91562843322754 42.08398056030273 7.999606132507324 38.50020217895508 7.999606132507324 C 37.24794387817383 7.999606132507324 36.03373336791992 8.355250358581543 34.98885726928711 9.028083801269531 L 31.29827880859375 11.40459442138672 L 29.27399063110352 7.50967264175415 C 28.14886856079102 5.344828128814697 25.93636703491211 4.000006198883057 23.49990081787109 4.000006198883057 C 21.21256828308105 4.000006198883057 19.13497924804688 5.168439388275146 17.94234466552734 7.125561714172363 L 16.89565658569336 8.843183517456055 L 14.89268970489502 9.02727222442627 C 13.28965663909912 9.174606323242188 11.80353450775146 9.913595199584961 10.70808982849121 11.10811710357666 C 9.606867790222168 12.30893898010254 9.000401496887207 13.8686056137085 9.000401496887207 15.49980640411377 C 9.000401496887207 15.6202392578125 9.00372314453125 15.74226188659668 9.010290145874023 15.86249446868896 L 9.205734252929688 19.44351768493652 L 5.667201042175293 20.02716064453125 C 4.701156616210938 20.18649482727051 4.000000953674316 21.01602745056152 4.000000953674316 21.99960517883301 C 4.000000953674316 23.10257339477539 4.897334575653076 23.99990653991699 6.000300884246826 23.99990653991699 L 45.99990081787109 23.99990653991699 M 45.99990081787109 27.99990653991699 L 6.000300884246826 27.99990653991699 C 2.686501026153564 27.99990653991699 1.089477564164554e-06 25.31340599060059 1.089477564164554e-06 21.99960517883301 C 1.089477564164554e-06 19.02093887329102 2.170556545257568 16.54985046386719 5.016234397888184 16.08048439025879 C 5.005734443664551 15.88809490203857 5.000401020050049 15.69481754302979 5.000401020050049 15.49980640411377 C 5.000401020050049 10.02918338775635 9.184079170227051 5.535094738006592 14.52659034729004 5.044061660766602 C 16.36968994140625 2.019517183303833 19.69910049438477 5.964491265331162e-06 23.49990081787109 5.964491265331162e-06 C 27.55516815185547 5.964491265331162e-06 31.07397842407227 2.299250364303589 32.82325744628906 5.665028095245361 C 34.46007919311523 4.611017227172852 36.40853500366211 3.999605894088745 38.50020217895508 3.999605894088745 C 44.29890060424805 3.999605894088745 48.99959945678711 8.701206207275391 48.99959945678711 14.49990558624268 C 48.99959945678711 15.24668407440186 48.92158889770508 15.97542858123779 48.77335739135742 16.6781177520752 C 50.69110107421875 17.67928314208984 52.00020217895508 19.68637275695801 52.00020217895508 21.99960517883301 C 52.00020217895508 25.31340599060059 49.31370162963867 27.99990653991699 45.99990081787109 27.99990653991699 Z" stroke="none" fill="#707070"/>
    </g>
    <g id="Union_2" data-name="Union 2" transform="translate(1173 1460)" fill="#e1e1e1">
      <path d="M 46.99980163574219 25.99990081787109 L 6.000301361083984 25.99990081787109 C 3.794531583786011 25.99990081787109 2.000001430511475 24.20536994934082 2.000001430511475 21.99959945678711 C 2.000001430511475 21.03487968444824 2.348041534423828 20.10346984863281 2.980011463165283 19.37696075439453 C 3.606701612472534 18.65653038024902 4.467901706695557 18.1831111907959 5.404971599578857 18.04393005371094 L 7.206611633300781 17.77631950378418 L 7.108211517333984 15.95758056640625 C 7.099981307983398 15.80539035797119 7.09580135345459 15.65137004852295 7.09580135345459 15.49980068206787 C 7.09580135345459 13.37390995025635 7.903441429138184 11.33915996551514 9.369961738586426 9.770359992980957 C 10.83667182922363 8.201340675354004 12.83104133605957 7.230240345001221 14.98568153381348 7.035950183868408 L 15.97891139984131 6.946380615234375 L 16.50506210327148 6.099210262298584 C 17.26658058166504 4.873050212860107 18.34100151062012 3.846440315246582 19.6121711730957 3.130350351333618 C 20.92487144470215 2.390870332717896 22.42546081542969 2.000000476837158 23.95170211791992 2.000000476837158 C 27.21982192993164 2.000000476837158 30.18377113342285 3.763050317764282 31.68688201904297 6.601130485534668 L 32.69735336303711 8.509030342102051 L 34.52255249023438 7.355870246887207 C 35.92692184448242 6.468590259552002 37.55819320678711 5.999600410461426 39.2400016784668 5.999600410461426 C 44.03824234008789 5.999600410461426 47.94190216064453 9.812820434570313 47.94190216064453 14.49990081787109 C 47.94190216064453 15.08438014984131 47.88100051879883 15.66802024841309 47.76090240478516 16.23460960388184 L 47.44264984130859 17.73603057861328 L 48.81059265136719 18.43193054199219 C 50.1611328125 19.11898040771484 51.00010299682617 20.48603057861328 51.00010299682617 21.99959945678711 C 51.00010299682617 24.20536994934082 49.20557022094727 25.99990081787109 46.99980163574219 25.99990081787109 Z" stroke="none"/>
      <path d="M 46.99980545043945 23.99990653991699 C 48.10277557373047 23.99990653991699 49.00010681152344 23.10257339477539 49.00010681152344 21.99960517883301 C 49.00010681152344 21.09469413757324 48.43376159667969 20.48414993286133 47.90375137329102 20.21452903747559 L 45.16783905029297 18.82271766662598 L 45.80437469482422 15.81986141204834 C 45.8956413269043 15.38936138153076 45.9419059753418 14.94526195526123 45.9419059753418 14.49990558624268 C 45.9419059753418 10.91562843322754 42.93545150756836 7.999606132507324 39.24000549316406 7.999606132507324 C 37.93688583374023 7.999606132507324 36.67501831054688 8.361672401428223 35.59082794189453 9.046672821044922 L 31.9404182434082 11.35301685333252 L 29.91946220397949 7.537206172943115 C 28.76391792297363 5.35538387298584 26.47720718383789 4.000006198883057 23.95169639587402 4.000006198883057 C 22.76862907409668 4.000006198883057 21.60748481750488 4.301839351654053 20.59379577636719 4.872883796691895 C 19.61492919921875 5.42430591583252 18.78857421875 6.213239192962646 18.20406341552734 7.154383659362793 L 17.15177345275879 8.848728179931641 L 15.16530704498291 9.027861595153809 C 13.50087356567383 9.177950859069824 11.96158504486084 9.92668342590332 10.83099555969238 11.13613891601563 C 9.712039947509766 12.33313941955566 9.095795631408691 13.88286113739014 9.095795631408691 15.49980640411377 C 9.095795631408691 15.61549472808838 9.098984718322754 15.73313903808594 9.105284690856934 15.84945011138916 L 9.302162170410156 19.48699569702148 L 5.698818206787109 20.022216796875 C 4.730329513549805 20.16607284545898 3.999995946884155 21.01616096496582 3.999995946884155 21.99960517883301 C 3.999995946884155 23.10257339477539 4.897329330444336 23.99990653991699 6.000296115875244 23.99990653991699 L 46.99980545043945 23.99990653991699 M 46.99980545043945 27.99990653991699 L 6.000296115875244 27.99990653991699 C 2.686506986618042 27.99990653991699 -4.057142632518662e-06 25.31340599060059 -4.057142632518662e-06 21.99960517883301 C -4.057142632518662e-06 18.98797225952148 2.219029188156128 16.49520683288574 5.111129283905029 16.06562805175781 C 5.100996017456055 15.87840557098389 5.09579610824585 15.6895055770874 5.09579610824585 15.49980640411377 C 5.09579610824585 10.02918338775635 9.360684394836426 5.535072803497314 14.80606269836426 5.044028282165527 C 16.68448448181152 2.019483804702759 20.07775115966797 5.964491265331162e-06 23.95169639587402 5.964491265331162e-06 C 28.08563995361328 5.964491265331162e-06 31.67170715332031 2.299283742904663 33.45430755615234 5.665061473846436 C 35.12256240844727 4.611050605773926 37.10840606689453 3.999605894088745 39.24000549316406 3.999605894088745 C 45.15119552612305 3.999605894088745 49.9419059753418 8.701206207275391 49.9419059753418 14.49990558624268 C 49.9419059753418 15.23641681671143 49.86448669433594 15.95560550689697 49.71743011474609 16.64933967590332 C 51.66565322875977 17.64043998718262 53.00010681152344 19.66391754150391 53.00010681152344 21.99960517883301 C 53.00010681152344 25.31340599060059 50.31360626220703 27.99990653991699 46.99980545043945 27.99990653991699 Z" stroke="none" fill="#707070"/>
    </g>
  </g>
</svg>
