<?xml version="1.0" encoding="UTF-8" standalone="no"?>
<svg
   xmlns:dc="http://purl.org/dc/elements/1.1/"
   xmlns:cc="http://creativecommons.org/ns#"
   xmlns:rdf="http://www.w3.org/1999/02/22-rdf-syntax-ns#"
   xmlns:svg="http://www.w3.org/2000/svg"
   xmlns="http://www.w3.org/2000/svg"
   xmlns:sodipodi="http://sodipodi.sourceforge.net/DTD/sodipodi-0.dtd"
   xmlns:inkscape="http://www.inkscape.org/namespaces/inkscape"
   width="295.484"
   height="277.777"
   viewBox="0 0 295.484 277.777"
   version="1.1"
   id="svg23"
   sodipodi:docname="findcurve.svg"
   inkscape:version="0.92.4 (5da689c313, 2019-01-14)">
  <metadata
     id="metadata27">
    <rdf:RDF>
      <cc:Work
         rdf:about="">
        <dc:format>image/svg+xml</dc:format>
        <dc:type
           rdf:resource="http://purl.org/dc/dcmitype/StillImage" />
      </cc:Work>
    </rdf:RDF>
  </metadata>
  <sodipodi:namedview
     pagecolor="#ffffff"
     bordercolor="#666666"
     borderopacity="1"
     objecttolerance="10"
     gridtolerance="10"
     guidetolerance="10"
     inkscape:pageopacity="0"
     inkscape:pageshadow="2"
     inkscape:window-width="1366"
     inkscape:window-height="705"
     id="namedview25"
     showgrid="false"
     inkscape:zoom="1.4142136"
     inkscape:cx="65.998752"
     inkscape:cy="76.494793"
     inkscape:window-x="-8"
     inkscape:window-y="248"
     inkscape:window-maximized="1"
     inkscape:current-layer="svg23" />
  <defs
     id="defs18">
    <linearGradient
       id="linear-gradient"
       x1="0.5"
       x2="0.5"
       y2="1"
       gradientUnits="objectBoundingBox">
      <stop
         offset="0"
         stop-color="#5ad1ff"
         id="stop2" />
      <stop
         offset="1"
         stop-color="#0690c4"
         id="stop4" />
    </linearGradient>
    <filter
       id="Subtraction_3"
       x="0"
       y="0"
       width="295.484"
       height="277.777"
       filterUnits="userSpaceOnUse">
      <feOffset
         dy="3"
         input="SourceAlpha"
         id="feOffset7" />
      <feGaussianBlur
         stdDeviation="3"
         result="blur"
         id="feGaussianBlur9" />
      <feFlood
         flood-opacity="0.161"
         id="feFlood11" />
      <feComposite
         operator="in"
         in2="blur"
         id="feComposite13"
         result="result1" />
      <feComposite
         in="SourceGraphic"
         in2="result1"
         id="feComposite15" />
    </filter>
    <linearGradient
       y1="48.058426"
       gradientTransform="matrix(1.1014448,0,0,1.035851,-29.371981,-50.033686)"
       id="linear-gradient-5"
       x1="160.85066"
       x2="160.85066"
       y2="316.54522"
       gradientUnits="userSpaceOnUse">
      <stop
         offset="0"
         stop-color="#5ad1ff"
         id="stop2-3" />
      <stop
         offset="1"
         stop-color="#0690c4"
         id="stop4-4" />
    </linearGradient>
  </defs>
  <g
     transform="matrix(1, 0, 0, 1, 0, 0)"
     filter="url(#Subtraction_3)"
     id="g21" />
  <path
     inkscape:connector-curvature="0"
     style="fill:url(#linear-gradient-5);stroke-width:1.06814456"
     id="Subtraction_3-2"
     data-name="Subtraction 3"
     d="m 1.1834928,277.85641 c -0.4262911,0 -0.85258199,-0.009 -1.24903266,-0.0246 V -0.25231346 H 295.65787 a 115.91705,116.44345 0 0 1 -3.57765,24.81574646 114.9579,115.47994 0 0 1 -8.73895,23.766591 94.040862,94.467918 0 0 1 -17.15822,24.129515 c -18.61826,18.820569 -44.8341,28.363611 -77.91748,28.363611 -55.80043,0 -82.40098,27.98354 -94.890253,51.45786 a 122.98495,123.54346 0 0 0 -12.07043,35.3769 104.79832,105.27422 0 0 0 -1.804277,16.07671 75.759372,76.103409 0 0 1 -1.365197,11.58353 93.53997,93.964752 0 0 1 -3.029863,11.86939 83.8621,84.242931 0 0 1 -5.771981,13.60691 66.881862,67.185584 0 0 1 -23.298934,25.4795 70.936955,71.259092 0 0 1 -19.289669,8.39538 97.807143,98.251306 0 0 1 -25.5614732,3.18708 z" />
</svg>
