<?xml version="1.0" encoding="UTF-8" standalone="no"?>
<svg
   xmlns:dc="http://purl.org/dc/elements/1.1/"
   xmlns:cc="http://creativecommons.org/ns#"
   xmlns:rdf="http://www.w3.org/1999/02/22-rdf-syntax-ns#"
   xmlns:svg="http://www.w3.org/2000/svg"
   xmlns="http://www.w3.org/2000/svg"
   xmlns:sodipodi="http://sodipodi.sourceforge.net/DTD/sodipodi-0.dtd"
   xmlns:inkscape="http://www.inkscape.org/namespaces/inkscape"
   width="317.501"
   height="298.278"
   viewBox="0 0 317.501 298.278"
   version="1.1"
   id="svg23"
   sodipodi:docname="findcurve.svg"
   inkscape:version="0.92.4 (5da689c313, 2019-01-14)">
  <metadata
     id="metadata27">
    <rdf:RDF>
      <cc:Work
         rdf:about="">
        <dc:format>image/svg+xml</dc:format>
        <dc:type
           rdf:resource="http://purl.org/dc/dcmitype/StillImage" />
      </cc:Work>
    </rdf:RDF>
  </metadata>
  <sodipodi:namedview
     pagecolor="#ffffff"
     bordercolor="#666666"
     borderopacity="1"
     objecttolerance="10"
     gridtolerance="10"
     guidetolerance="10"
     inkscape:pageopacity="0"
     inkscape:pageshadow="2"
     inkscape:window-width="1366"
     inkscape:window-height="705"
     id="namedview25"
     showgrid="false"
     inkscape:zoom="12.659331"
     inkscape:cx="21.153247"
     inkscape:cy="293.81214"
     inkscape:window-x="-8"
     inkscape:window-y="-8"
     inkscape:window-maximized="1"
     inkscape:current-layer="svg23" />
  <defs
     id="defs18">
    <linearGradient
       id="linear-gradient"
       x1="254.66386"
       x2="254.66386"
       y2="318.67585"
       gradientUnits="userSpaceOnUse"
       gradientTransform="scale(1.0337167,0.967383)"
       y1="28.944069">
      <stop
         offset="0"
         stop-color="#5ad1ff"
         id="stop2" />
      <stop
         offset="1"
         stop-color="#0690c4"
         id="stop4" />
    </linearGradient>
    <filter
       id="Subtraction_2"
       x="0"
       y="0"
       width="317.501"
       height="298.278"
       filterUnits="userSpaceOnUse">
      <feOffset
         dy="3"
         input="SourceAlpha"
         id="feOffset7" />
      <feGaussianBlur
         stdDeviation="3"
         result="blur"
         id="feGaussianBlur9" />
      <feFlood
         flood-opacity="0.161"
         id="feFlood11" />
      <feComposite
         operator="in"
         in2="blur"
         id="feComposite13"
         result="result1" />
      <feComposite
         in="SourceGraphic"
         in2="result1"
         id="feComposite15" />
    </filter>
  </defs>
  <g
     transform="matrix(1.068759,0,0,1.0025281,-11.501199,-10.219015)"
     id="g21"
     style="filter:url(#Subtraction_2)">
    <path
       id="Subtraction_2-2"
       data-name="Subtraction 2"
       d="m 115.722,308.278 c -0.762,0 -1.489,-0.026 -2.222,-0.078 V 31.65 c 0.572,-2.163 0.891,-3.326 0.894,-3.337 L 413,28 a 0.069,0.069 0 0 1 0,0.018 c 0,0.49 -0.027,3.143 -0.428,7.247 a 126.141,126.141 0 0 1 -3.194,18.25 116.157,116.157 0 0 1 -8.829,23.92 94.974,94.974 0 0 1 -17.333,24.276 c -18.794,18.912 -45.249,28.5 -78.628,28.5 -56.331,0 -83.185,28.147 -95.793,51.76 a 124.333,124.333 0 0 0 -12.185,35.585 104.81,104.81 0 0 0 -1.821,16.175 75.946,75.946 0 0 1 -1.378,11.648 94.679,94.679 0 0 1 -3.059,11.939 84.794,84.794 0 0 1 -5.825,13.682 67.559,67.559 0 0 1 -23.521,25.625 71.591,71.591 0 0 1 -19.476,8.445 98.642,98.642 0 0 1 -25.808,3.208 z"
       transform="translate(-104.5,-22)"
       style="fill:url(#linear-gradient)"
       inkscape:connector-curvature="0" />
  </g>
</svg>
